
<svg width="500px" height="100px" viewBox="0 0 500 100" version="1.1" xmlns="http://www.w3.org/2000/svg" xmlns:xlink="http://www.w3.org/1999/xlink">
    <!-- Generator: Sketch 48.2 (47327) - http://www.bohemiancoding.com/sketch -->
    <desc>Created with Sketch.</desc>
    <defs></defs>
    <g id="logo__text" stroke="none" stroke-width="1">
        <g id="golangci2">
            <g id="logo">
                <path d="M77.4959216,46.5875684 L77.4959216,61.15231 C77.4959216,63.0864134 77.2913585,64.6313374 76.8853794,65.7900304 C76.4428146,67.000671 75.6704069,68.0820306 74.6446265,68.9270517 C73.5588684,69.8587234 72.1646921,70.7550152 70.4683918,71.6218237 C65.5651713,74.1072644 60.8444841,75.9234347 56.30633,77.0614894 C51.7713231,78.2024924 46.82719,78.7715198 41.483372,78.7715198 C35.2489177,78.7715198 29.5683574,77.875228 24.441691,76.0767477 C19.3150247,74.2812158 14.9468154,71.6719453 11.3307689,68.2518845 C7.71786961,64.8318237 4.9421055,60.6864742 3.00662373,55.8128875 C1.06799482,50.9422492 0.101827498,45.4996353 0.101827498,39.4879939 C0.101827498,33.5795441 1.04281783,28.17231 2.92165136,23.2662918 C4.80363201,18.3602736 7.56995475,14.197234 11.2206196,10.7771733 C14.8712844,7.35711246 19.3150247,4.73899696 24.5518404,2.92577508 C29.7886561,1.11255319 35.7272807,0.204468085 42.364567,0.204468085 C47.8248286,0.204468085 52.6556652,0.885531915 56.860224,2.2506079 C61.0647828,3.61568389 64.4762661,5.33455927 67.094674,7.41018237 C69.7130819,9.48285714 71.6863291,11.6764134 73.0112687,13.9908511 C74.3425025,16.3052888 75.0065458,18.3602736 75.0065458,20.1587538 C75.0065458,22.0928571 74.2386474,23.7409726 72.7091447,25.1060486 C71.2393246,26.4492048 69.2578164,27.1868589 67.2048234,27.1551368 C64.7762689,27.1292244 62.5020666,26.0350125 61.0647828,24.2009119 C59.0348873,21.228997 57.3197042,18.9823708 55.9192337,17.4639818 C54.5187631,15.9426444 52.6273411,14.6630699 50.2481147,13.6282067 C47.8720355,12.5903951 44.83506,12.0714894 41.1497768,12.0714894 C37.3511971,12.0714894 33.9585965,12.6847416 30.9688279,13.9112462 C28.0122439,15.1172932 25.3913299,16.9441837 23.3087261,19.2506687 C21.1875639,21.5827964 19.5636475,24.4397264 18.4401239,27.830304 C17.3166004,31.2149848 16.753265,34.9652584 16.753265,39.075228 C16.753265,47.9880243 18.9373697,54.8487842 23.3087261,59.6486626 C27.6800825,64.4514894 33.7729162,66.8514286 41.5935214,66.8514286 C45.388954,66.8514286 48.9577935,66.3855927 52.2937459,65.453921 C55.8138006,64.4494852 59.2155494,63.1119094 62.4463706,61.4618845 L62.4463706,49.1290274 L49.7225449,49.1290274 C46.6635395,49.1290274 44.3472556,48.6956231 42.7799875,47.8317629 C41.2127193,46.9679027 40.4290852,45.5025836 40.4290852,43.4269605 C40.4290852,41.7346201 41.0836872,40.3341641 42.3928911,39.228541 C43.702095,38.1229179 45.4833677,37.5715805 47.733562,37.5715805 L66.3739824,37.5715805 C68.6619422,37.5715805 70.5974239,37.7602736 72.1835749,38.1406079 C73.7697258,38.5238906 75.0506056,39.3671125 76.0293614,40.6820669 C77.0049701,41.9940729 77.4959216,43.9635562 77.4959216,46.5875684 Z M148.636679,50.0076292 C148.636679,54.2237386 147.93487,58.1125836 146.534399,61.6712158 C145.133929,65.229848 143.104033,68.2872644 140.451007,70.843465 C137.764413,73.4193722 134.519047,75.4251679 130.934101,76.7253799 C127.245671,78.0904559 123.097761,78.7715198 118.487223,78.7715198 C113.91445,78.7715198 109.801158,78.0816109 106.150493,76.698845 C102.578369,75.3671367 99.3454339,73.345982 96.6619119,70.7668085 C93.9688853,68.1629421 91.8955309,65.0539195 90.5785195,61.6446809 C89.1937846,58.1361702 88.5014172,54.2591185 88.5014172,50.0105775 C88.5014172,45.7237082 89.203226,41.8024316 90.6068437,38.2467477 C92.0073142,34.6851672 94.018327,31.6454407 96.6367349,29.1246201 C99.2551427,26.6008511 102.427445,24.6579027 106.150493,23.2928267 C109.876689,21.9277508 113.986834,21.2466869 118.487223,21.2466869 C123.059995,21.2466869 127.207906,21.9365957 130.934101,23.3193617 C134.537763,24.6264366 137.801009,26.641056 140.504508,29.2278116 C143.191582,31.8316312 145.256687,34.9411533 146.562723,38.3499392 C147.947458,41.8731915 148.639826,45.7590881 148.639826,50.0105775 L148.636679,50.0076292 Z M133.480125,50.0076292 C133.480125,44.2406991 132.123715,39.7474468 129.41404,36.533769 C126.701218,33.3200912 123.059995,31.7162006 118.487223,31.7162006 C115.53522,31.7162006 112.935694,32.4326444 110.6855,33.8655319 C108.438453,35.2984195 106.704387,37.4153191 105.48645,40.2132827 C104.268513,43.0141945 103.661118,46.2779939 103.661118,50.0105775 C103.661118,53.7077812 104.259071,56.9391489 105.458126,59.7017325 C106.65718,62.4643161 108.372363,64.5812158 110.603675,66.0494833 C112.838134,67.5177508 115.462836,68.2518845 118.487223,68.2518845 C123.059995,68.2518845 126.701218,66.6362006 129.41404,63.4077812 C132.123715,60.1764134 133.480125,55.7126444 133.480125,50.0105775 L133.480125,50.0076292 Z M160.529663,70.1682979 L160.529663,8.8106383 C160.529663,5.97729483 161.203148,3.83386018 162.550118,2.38328267 C163.897087,0.932705167 165.712978,0.207416413 167.997791,0.207416413 C170.28575,0.207416413 172.129966,0.923860182 173.530436,2.35969605 C174.934054,3.79258359 175.632715,5.94191489 175.632715,8.8106383 L175.632715,70.1712462 C175.632715,73.0399696 174.924612,75.1922492 173.502112,76.6251368 C172.085906,78.0580243 170.247985,78.7774164 167.997791,78.7774164 C165.785362,78.7774164 163.988354,78.0344377 162.606766,76.5484802 C161.222031,75.0625228 160.529663,72.9367781 160.529663,70.1712462 L160.529663,70.1682979 Z M229.404491,70.7903951 C225.753826,73.4527356 222.222752,75.4487538 218.811268,76.7755015 C215.399785,78.1081459 211.572881,78.7715198 207.330557,78.7715198 C203.459593,78.7715198 200.057551,78.055076 197.124431,76.6221884 C194.194458,75.1893009 191.931675,73.2434043 190.348671,70.7903951 C188.778134,68.3893291 187.954143,65.625247 187.969445,62.8092705 C187.969445,58.9410638 189.278649,55.6418845 191.897057,52.9117325 C194.515465,50.1815805 198.112628,48.3506687 202.685401,47.418997 C203.645274,47.212614 206.021353,46.7438298 209.819933,46.018541 C213.086252,45.4019835 216.341844,44.7365591 219.585461,44.0225228 C222.545697,43.3558852 225.488089,42.621532 228.409999,41.8201216 C228.224319,38.0904863 227.421802,35.3514894 226.002449,33.606079 C224.583095,31.8606687 221.640534,30.9879635 217.177911,30.9879635 C213.344712,30.9879635 210.458799,31.4891793 208.523317,32.4916109 C206.584688,33.4940426 204.926154,34.99769 203.541419,37.0025532 C202.156684,39.0074164 201.181075,40.3253191 200.611445,40.9651064 C200.038669,41.6048936 198.81129,41.9233131 196.929309,41.9233131 C195.236156,41.9233131 193.769596,41.4162006 192.532776,40.396079 C191.299103,39.3759574 190.679119,38.0727964 190.679119,36.4836474 C190.679119,33.9952584 191.623257,31.5776292 193.50209,29.2278116 C195.384071,26.8779939 198.317191,24.9438906 202.298304,23.4225532 C206.279417,21.9012158 211.242433,21.1434954 217.177911,21.1434954 C223.818344,21.1434954 229.036277,21.8776292 232.834857,23.3458967 C236.633436,24.8141641 239.317934,27.1374468 240.885202,30.3157447 C242.45247,33.4940426 243.236104,37.710152 243.236104,42.9611246 C243.239489,48.350843 243.202772,53.740518 243.125955,59.1297568 C243.125955,61.7920973 243.594876,64.5635258 244.535867,67.4499392 C245.476857,70.3334043 245.945779,72.1908511 245.945779,73.0222796 C245.945779,74.4699088 245.218793,75.7937082 243.761674,76.9848328 C242.304555,78.1759574 240.652315,78.7715198 238.8081,78.7715198 C237.259714,78.7715198 235.730211,78.0904559 234.216444,76.7253799 C232.705824,75.360304 231.100791,73.3819757 229.404491,70.7903951 Z M228.409999,50.320152 C226.19757,51.0808207 222.978062,51.882766 218.75462,52.7289362 C214.534326,53.5780547 211.610647,54.1972036 209.98673,54.595228 C208.365961,54.9932523 206.814428,55.7716109 205.341574,56.9273556 C203.862425,58.0860486 203.129145,59.6987842 203.129145,61.7744073 C203.129145,63.9148936 203.994605,65.7399088 205.72867,67.2406079 C207.459589,68.7442553 209.728666,69.496079 212.532754,69.496079 C215.519376,69.496079 218.276257,68.8828267 220.803398,67.6563222 C223.327392,66.4298176 225.181049,64.8495137 226.361221,62.9154103 C227.727073,60.7719757 228.406852,57.2487234 228.406852,52.3427052 L228.406852,50.320152 L228.409999,50.320152 Z M272.280919,29.0715502 L272.280919,30.7815805 C274.933946,27.5000912 277.838742,25.091307 280.992161,23.5522796 C284.14558,22.0132523 287.767921,21.2466869 291.86233,21.2466869 C295.843443,21.2466869 299.402841,22.0574772 302.537378,23.6820061 C305.595563,25.2299904 308.054715,27.6421331 309.564907,30.5751976 C310.564953,32.3159183 311.220668,34.2117441 311.500389,36.1711246 C311.796219,38.1759878 311.940987,40.7321884 311.940987,43.8426748 L311.940987,70.1712462 C311.940987,73.0016413 311.251766,75.145076 309.870178,76.5986018 C308.485444,78.046231 306.688435,78.7715198 304.476006,78.7715198 C302.225812,78.7715198 300.40048,78.0314894 299.000009,76.5455319 C297.596392,75.0595745 296.894583,72.9338298 296.894583,70.1682979 L296.894583,46.5875684 C296.894583,41.9233131 296.202215,38.3558359 294.820627,35.8851368 C293.435893,33.417386 290.682158,32.1820365 286.549983,32.1820365 C283.859192,32.1820365 281.407581,32.9338602 279.192006,34.4345593 C276.979577,35.9382067 275.358807,38.0020365 274.326551,40.628997 C273.586976,42.7370517 273.218763,46.6730699 273.218763,52.4458967 L273.218763,70.1682979 C273.218763,73.0370213 272.507512,75.1893009 271.088159,76.6221884 C269.671953,78.055076 267.834032,78.7744681 265.583838,78.7744681 C263.409174,78.7744681 261.61846,78.0314894 260.21799,76.5455319 C258.817519,75.0595745 258.11571,72.9338298 258.11571,70.1682979 L258.11571,29.2779331 C258.11571,26.5831611 258.745135,24.5724012 259.997691,23.2397568 C261.250247,21.9130091 262.96543,21.2466869 265.14324,21.2466869 C266.46818,21.2466869 267.667234,21.5415198 268.737257,22.1282371 C269.807279,22.7149544 270.663297,23.5965046 271.311605,24.7699392 C271.956766,25.9433739 272.277772,27.3792097 272.277772,29.0715502 L272.280919,29.0715502 Z M382.530997,31.6100608 L382.530997,72.7097568 C382.530997,77.4093921 381.995986,81.4515502 380.925963,84.836231 C379.855941,88.2238602 378.143905,91.0218237 375.783561,93.2330699 C373.423217,95.4443161 370.332741,97.0835866 366.518426,98.1567781 C362.700963,99.2270213 357.951952,99.763617 352.271391,99.763617 C347.072341,99.763617 342.424038,99.0796049 338.329628,97.7145289 C334.238366,96.3494529 331.084947,94.5893009 328.872518,92.4281763 C326.656942,90.27 325.552302,88.0499088 325.552302,85.7708511 C325.552302,84.0431307 326.181727,82.6338298 327.434282,81.5458967 C328.686838,80.4550152 330.197458,79.9125228 331.969289,79.9125228 C334.181718,79.9125228 336.1172,80.8265046 337.778882,82.6603647 C338.59084,83.5920365 339.427975,84.5355015 340.296581,85.4848632 C341.162041,86.4342249 342.121914,87.2450152 343.173054,87.9201824 C344.224193,88.5953495 345.48619,89.093617 346.962192,89.4238298 C348.632493,89.7715714 350.340185,89.9367972 352.051093,89.9162006 C355.959822,89.9162006 358.99365,89.4061398 361.149431,88.3860182 C363.308358,87.3658967 364.818978,85.9418541 365.687585,84.1109422 C366.561609,82.2499551 367.076271,80.2584562 367.207646,78.2290274 C367.355561,76.1357143 367.46571,72.7775684 367.541241,68.1457447 C365.215516,71.1884195 362.534166,73.5028571 359.490896,75.0920061 C356.447626,76.6841033 352.825285,77.4772036 348.620727,77.4772036 C343.569591,77.4772036 339.151028,76.2683891 335.371331,73.8507599 C331.591634,71.4331307 328.686838,68.0425532 326.656942,63.6908207 C324.630194,59.3390881 323.61682,54.3121884 323.61682,48.6101216 C323.61682,44.3615805 324.233656,40.5258055 325.470476,37.1057447 C326.704149,33.6856839 328.466539,30.7992705 330.751352,28.4494529 C332.945775,26.1615129 335.645583,24.3485694 338.663224,23.1365653 C341.652992,21.9454407 344.932296,21.3498784 348.510577,21.3498784 C352.790667,21.3498784 356.494833,22.1164438 359.629369,23.6554711 C362.763906,25.1944985 365.678143,27.6032827 368.368935,30.884772 L368.368935,28.9683587 C368.368935,26.5153495 369.014096,24.6136778 370.307564,23.2662918 C371.597885,21.9189058 373.25642,21.2466869 375.286315,21.2466869 C378.197406,21.2466869 380.132888,22.1341337 381.092761,23.914924 C382.052634,25.6957143 382.530997,28.2607599 382.530997,31.6100608 Z M338.773373,49.5417933 C338.773373,55.2792401 340.110901,59.6132827 342.785957,62.552766 C345.461013,65.4893009 348.916556,66.9575684 353.155734,66.9575684 C355.663992,66.9575684 358.033777,66.3266261 360.268236,65.0647416 C362.4964,63.8028571 364.312291,61.9041337 365.712762,59.3626748 C367.116379,56.8271125 367.818188,53.7402128 367.818188,50.113769 C367.818188,44.3438906 366.461777,39.8535866 363.752103,36.6399088 C361.039281,33.426231 357.473589,31.8193921 353.045584,31.8193921 C348.734023,31.8193921 345.272186,33.3554711 342.672661,36.4305775 C340.073136,39.5056839 338.773373,43.8780547 338.773373,49.5417933 Z M467.947112,53.4807599 C467.947112,55.8983891 467.311393,58.5165046 466.039954,61.3321581 C464.765369,64.1478116 462.766945,66.9133435 460.03524,69.6258055 C457.306683,72.3382675 453.822816,74.5406687 449.580492,76.2330091 C445.338167,77.9253495 440.397181,78.7715198 434.757534,78.7715198 C430.477444,78.7715198 426.58445,78.3941337 423.0817,77.633465 C419.721775,76.9269381 416.501616,75.7289945 413.539618,74.0836778 C410.682028,72.4768389 408.054179,70.3599392 405.65607,67.7329787 C403.4775,65.2908359 401.637554,62.600245 400.180073,59.7253191 C398.646417,56.7113656 397.504243,53.5359333 396.778031,50.2670821 C396.005302,46.756012 395.625593,43.1790098 395.645066,39.5941337 C395.645066,33.4763526 396.592351,28.001307 398.493214,23.1631003 C400.39093,18.3278419 403.110046,14.1883891 406.650562,10.7506383 C410.157694,7.33421644 414.402053,4.65758267 419.100587,2.89924012 C423.855893,1.10075988 428.929058,0.204468085 434.313789,0.204468085 C440.875544,0.204468085 446.722902,1.43097264 451.849569,3.88398176 C456.976235,6.33699088 460.903847,9.36787234 463.632404,12.9795745 C466.360961,16.5912766 467.723666,20.0024924 467.723666,23.2161702 C467.723666,24.9763222 467.06277,26.5330395 465.734683,27.8804255 C464.406597,29.2278116 462.801563,29.9000304 460.919582,29.9000304 C458.82045,29.9000304 457.243741,29.4341945 456.192601,28.5025228 C455.141461,27.5679027 453.970731,25.9610638 452.677262,23.6820061 C450.537217,19.9169909 448.022665,17.0983891 445.12731,15.2350456 C442.231955,13.3687538 438.663115,12.4341337 434.423938,12.4341337 C427.673356,12.4341337 422.298066,14.8370213 418.298071,19.639848 C414.294928,24.4426748 412.293356,31.2651064 412.293356,40.1100912 C412.293356,46.018541 413.180846,50.9334043 414.94953,54.8546809 C416.721361,58.7759574 419.22962,61.7036474 422.471158,63.6406991 C425.718991,65.5748024 429.520718,66.5418541 433.870044,66.5418541 C438.590732,66.5418541 442.581286,65.445076 445.848001,63.2515198 C449.11157,61.0579635 451.572622,57.8354407 453.231156,53.5839514 C453.932965,51.5790881 454.798425,49.9486626 455.830681,48.6897264 C456.866086,47.4278419 458.52462,46.7968997 460.809433,46.7968997 C462.766945,46.7968997 464.444362,47.4366869 465.844833,48.7133131 C467.245303,49.9928875 467.947112,51.5820365 467.947112,53.4807599 Z M483.380612,69.3928875 L483.380612,9.53297872 C483.380612,6.4224924 484.135922,4.09036474 485.649689,2.53659574 C487.160309,0.982826748 489.117821,0.204468085 491.512783,0.204468085 C493.983276,0.204468085 495.984847,0.971033435 497.517497,2.51006079 C499.047,4.04908815 499.811751,6.39006079 499.811751,9.53297872 L499.811751,69.3928875 C499.811751,72.5358055 499.047,74.8856231 497.51435,76.4393921 C495.984847,77.9961094 493.983276,78.7715198 491.512783,78.7715198 C489.152439,78.7715198 487.207516,77.9872644 485.678013,76.4128571 C484.145364,74.8413982 483.380612,72.5033739 483.380612,69.3928875 Z" id="Shape"></path>
            </g>
        </g>
    </g>
</svg>
