<svg version="1" xmlns="http://www.w3.org/2000/svg" width="1333.333" height="1333.333" viewBox="0 0 1000.000000 1000.000000"><path d="M473.8.5c-.2.1-5.2.6-11.3.9-6 .4-11.9.9-13 1.1-1.1.2-4.7.7-8 1-3.3.3-6.9.7-8 .9-1.1.2-4.2.7-7 1-7.1 1-30.8 5.4-38.5 7.2-107.5 24.9-203.2 84.2-274.2 169.9C76.1 228 44.9 284.3 26 341c-5.1 15.2-11.9 39.4-13.4 47-.2 1.4-1.4 6.8-2.5 12S7.6 412.4 7 416c-.5 3.6-1.2 7.6-1.4 9-.6 3.5-1.5 10.6-2.2 17-.3 3-.7 6.6-1 8-2.4 15.1-2.5 86.5 0 99.5.2 1.1.7 5.1 1.1 9 .4 3.8.9 7.7 1 8.6.2.9.6 4 1 7 .3 3 1.3 8.5 2 12.4.8 3.8 1.7 8.6 2 10.5 1.1 6.4 5.5 25.1 8.1 34.4 1.4 5 2.7 10.1 3 11.2.2 1.2 2.7 8.9 5.5 17 32.1 93.7 89.5 174.6 166.6 234.6 5.9 4.6 12.4 9.5 14.3 10.8 1.9 1.3 3.7 2.7 4 3 1.2 1.6 25.8 17.5 38.4 24.8 54.5 31.9 121.4 54.9 181.6 62.6 2.5.3 6.5.8 9 1.1 20.6 2.6 34.2 3.2 65 3 18.4-.2 34.6-.5 36-.8 1.4-.3 5.7-.8 9.7-1.2 3.9-.3 8.2-.8 9.5-1 1.3-.2 4.8-.6 7.8-1s6.4-.8 7.5-1c1.1-.2 3.8-.6 6.1-1 19.5-2.8 54-11.2 72.9-17.7 16-5.5 23.2-8 25.5-9 1.4-.6 3.4-1.4 4.5-1.9 43.3-17.3 83.3-40.1 120-68.5 7.7-5.9 14.2-11 14.5-11.3.3-.4 3.4-3.1 7-6.1 23.1-19.6 51.8-50.1 71.2-75.5.4-.6 1.8-2.4 3.1-4 8.8-11.2 25.6-36.9 35.1-53.5 15.6-27.4 33.8-69.8 42.9-100 2.7-9 7.5-26.8 8.3-31 .3-1.4.9-4.1 1.4-6 2.4-8.9 7.1-36.7 8.5-50 .3-3 .8-6.9 1-8.5 2.7-19.5 2.7-79.2 0-101-.2-1.7-.6-5.7-1-8.9-.3-3.2-.7-6.2-.9-6.5-.2-.3-.7-3.6-1-7.4-.4-3.7-.9-7.3-1.1-8-.2-.6-.7-2.9-1-5-1-7-5-25.3-8.9-41.2-12-48.2-39.9-109.4-69.4-152.5-34.2-49.9-74.9-91.7-122.7-126.1C727.4 47.8 650.7 16.6 574 5.5c-6.3-.9-12.5-1.8-13.8-2-1.3-.2-6.5-.7-11.5-1.1-5.1-.3-10.1-.8-11.2-1.1-2.2-.5-63.1-1.3-63.7-.8z"/></svg>